<svg xmlns="http://www.w3.org/2000/svg" x="0px" y="0px" width="800px" height="172px" viewBox="0 0 800 172">
  <g>
    <path d="M0.4,86c0-48,37.7-85.7,86.2-85.7c25.6,0,49.5,11.1,64.6,29.6c2.8,3.5,3.8,5.8,3.8,8.3c0,4.8-4.3,8.8-9.3,8.8
		c-3.3,0-6-1.3-8.3-4c-13.1-16.3-30.1-24.6-50.5-24.6c-37.7,0-66.1,29.1-66.1,67.6c0,38.4,28.4,67.6,66.1,67.6
		c20.3,0,37.4-8.5,50.5-24.6c2.3-2.8,5-4,8.3-4c5,0,9.3,4,9.3,8.8c0,2.5-1,4.8-3.8,8.3c-14.6,18.6-38.7,29.6-64.6,29.6
		C38.1,171.7,0.4,134,0.4,86 M190.8,161.2v-148c0-5.8,4-10.3,9.8-10.3c5.5,0,9.8,4.5,9.8,10.3v140.7H281c5.3,0,9,3.8,9,8.8
		c0,4.8-3.8,8.8-9,8.8h-79.9C195.1,171.5,190.8,166.9,190.8,161.2 M532,81.8h37.9c20.9,0,33.4-11.6,33.4-30.4
		c0-18.6-12.8-30.6-33.4-30.6H532V81.8z M637.5,162.9c0,4.8-4,8.8-9.3,8.8c-3,0-5.8-1.8-8.5-5.3l-50-67.1H532v62.3
		c0,5.5-4.3,10.1-9.8,10.1c-5.8,0-9.8-4.5-9.8-10.1V13.2c0-5.5,4.3-10.1,10-10.1h48.2c31.7,0,53,19.3,53,48
		c0,22.1-12.6,38.7-32.9,45.2l43.5,59C636.2,157.9,637.5,160.4,637.5,162.9L637.5,162.9z M799,162.9c0,4.8-4,8.8-9,8.8
		c-2.5,0-5-1.3-7.8-4l-79.1-80.9c-1.8-2-3-4.3-3-6.8c0-2.5,1.3-4.8,3.3-7l71.8-68.6c3-2.8,5-4,7.5-4c5,0,9,4,9,8.8
		c0,2.8-1.3,5-4.3,7.8L721.7,80l73.6,75.6C798,157.9,799,159.9,799,162.9z M694.5,10.7v150.7c0,5.8-4.3,10.3-9.8,10.3
		c-5.8,0-9.8-4.5-9.8-10.3V10.7c0-5.8,4-10.3,9.8-10.3C690.3,0.4,694.5,4.9,694.5,10.7L694.5,10.7z M474.4,155.5L410.9,6.8
		c-2-4.5-5-6.8-9.3-6.8c-4.3,0-7.3,2.3-9.3,6.8l-63.6,148.7c-1,2.5-1.5,4.5-1.5,6.3c0,5,4.3,9.5,9.5,9.5c4.3,0,7.5-2.5,9.3-6.5
		l12.1-28.8l0.4-1.1l7.3-17.6l35.7-87.9l34.7,87.9l7.5,17.6l13.3,29.9c2,4,5,6.5,9.5,6.5c5,0,9.5-4.5,9.5-9.5
		C476.2,160,475.7,158,474.4,155.5" fill-rule="evenodd" clip-rule="evenodd" fill="#0439d7" />
  </g>
</svg>
